<svg version="1.1" id="Layer_1" xmlns="http://www.w3.org/2000/svg" xmlns:xlink="http://www.w3.org/1999/xlink" x="0px" y="0px"
	 width="100%" viewBox="0 0 1688 1030" enable-background="new 0 0 1688 1030" xml:space="preserve">
<path fill="#FFFFFF" opacity="1.000000" stroke="none" 
	d="
M1126.000000,1031.000000 
	C750.666687,1031.000000 375.833344,1031.000000 1.000000,1031.000000 
	C1.000000,687.666687 1.000000,344.333344 1.000000,1.000000 
	C563.666687,1.000000 1126.333374,1.000000 1689.000000,1.000000 
	C1689.000000,344.333344 1689.000000,687.666687 1689.000000,1031.000000 
	C1501.500000,1031.000000 1314.000000,1031.000000 1126.000000,1031.000000 
M1414.021362,381.071777 
	C1414.021362,270.165497 1414.021362,159.259216 1414.021362,48.293304 
	C1375.075928,48.293304 1336.689453,48.293304 1298.000000,48.293304 
	C1298.000000,50.555889 1298.000000,52.528137 1298.000000,54.500381 
	C1298.000000,261.771027 1297.994019,469.041687 1298.041504,676.312317 
	C1298.042480,680.565552 1298.424561,684.853210 1299.035645,689.065857 
	C1301.928345,709.012695 1319.820557,725.004700 1340.344849,725.000977 
	C1363.004639,724.996887 1385.664429,725.000000 1408.324219,725.000000 
	C1410.100098,725.000000 1411.876099,725.000000 1414.000244,725.000000 
	C1414.000244,621.699524 1414.000244,518.932556 1414.928711,416.026184 
	C1425.228027,416.017456 1435.527466,415.989136 1445.826782,416.003693 
	C1477.884399,416.048950 1509.942139,416.110443 1542.000000,417.082153 
	C1542.000000,508.563324 1541.995361,600.044495 1542.032227,691.525696 
	C1542.032959,693.450256 1542.253052,695.453796 1542.810425,697.286804 
	C1547.649536,713.202148 1564.214478,725.003967 1580.443726,725.001099 
	C1604.438843,724.996887 1628.433838,725.000000 1652.428955,725.000000 
	C1654.194946,725.000000 1655.960938,725.000000 1657.708008,725.000000 
	C1657.708008,499.029938 1657.708008,273.668335 1657.708008,48.320641 
	C1619.026001,48.320641 1580.636841,48.320641 1542.000000,48.320641 
	C1542.000000,50.619095 1542.000000,52.598694 1542.000000,54.578289 
	C1542.000000,162.056107 1542.000854,269.533936 1541.993164,377.011749 
	C1541.993042,379.007507 1541.889282,381.003296 1541.226562,382.724945 
	C1526.259521,371.097321 1511.341431,359.406067 1496.309082,347.863525 
	C1485.570068,339.617523 1472.012451,338.814819 1461.292236,346.062836 
	C1452.647461,351.907532 1444.678711,358.749451 1436.379761,365.109436 
	C1428.996826,370.767487 1421.572266,376.371246 1414.021362,381.071777 
M1202.558105,617.943848 
	C1202.929688,616.871765 1203.298706,615.798828 1203.673218,614.727783 
	C1212.000488,590.919861 1215.947144,566.346680 1215.967285,541.183044 
	C1216.046997,441.375336 1216.024902,341.567566 1215.956665,241.759903 
	C1215.950684,233.000198 1215.855591,224.182663 1214.883423,215.494751 
	C1213.325928,201.576660 1211.595459,187.625443 1208.851196,173.905579 
	C1205.200806,155.654388 1198.001343,138.635773 1187.971191,122.899689 
	C1178.918945,108.698044 1167.797485,96.439873 1154.571899,85.890610 
	C1141.464233,75.435318 1127.177368,67.193863 1111.689697,61.089287 
	C1092.816040,53.650135 1073.055542,49.130577 1052.873413,48.232689 
	C1030.599976,47.241760 1008.168457,46.930458 986.079102,51.105717 
	C963.645508,55.346024 942.236694,62.531483 922.391907,74.146111 
	C903.614197,85.136223 887.078613,98.792435 874.405396,116.401237 
	C852.247131,147.188828 841.601685,182.454681 841.292908,219.869431 
	C840.444458,322.669403 840.919434,425.481049 841.088928,528.287781 
	C841.113647,543.305420 841.518860,558.415100 843.241699,573.309387 
	C844.744690,586.302734 847.357117,599.360779 851.218262,611.852722 
	C863.463684,651.468933 887.789490,681.734436 924.140320,701.994934 
	C951.465698,717.224792 981.306519,723.289551 1012.147278,724.854858 
	C1023.360352,725.423950 1034.702759,724.846924 1045.904053,723.860413 
	C1057.739136,722.817932 1069.633545,721.384033 1081.225830,718.854980 
	C1111.141113,712.328613 1137.864258,698.910400 1160.773315,678.577576 
	C1179.391724,662.052856 1193.300049,642.013977 1202.558105,617.943848 
M766.529602,563.968750 
	C767.219238,547.469421 767.908875,530.970093 768.618164,514.000000 
	C765.761353,514.000000 763.971985,514.000000 762.182556,514.000000 
	C731.518066,514.000000 700.844788,514.429443 670.193359,513.796753 
	C657.235107,513.529236 650.211670,522.573853 649.855896,534.281555 
	C649.553284,544.238647 648.827759,554.327820 646.828674,564.058472 
	C642.493652,585.159424 631.536133,602.043884 611.615051,611.614685 
	C598.832947,617.755798 585.231323,619.058105 570.982727,617.162659 
	C548.570862,614.181213 532.568542,602.984314 522.970947,582.647949 
	C515.475525,566.765930 512.229187,549.698792 512.158936,532.402100 
	C511.810333,446.576294 511.958466,360.748291 512.044617,274.921112 
	C512.057617,261.993530 512.720642,249.067642 512.984070,236.138947 
	C513.252441,222.971298 515.997803,210.203629 520.189087,197.866501 
	C524.445374,185.338043 530.948914,173.846130 542.119568,166.047363 
	C558.218262,154.808075 576.354797,152.966675 595.201233,155.998077 
	C620.454224,160.059967 636.150146,175.493942 644.356628,198.947220 
	C648.988464,212.184540 650.174255,226.040222 650.117065,240.098145 
	C650.061523,253.737442 658.708801,261.966187 672.103821,261.985870 
	C702.601562,262.030701 733.099487,262.000000 763.597290,262.000000 
	C765.347229,262.000000 767.097107,262.000000 769.882874,262.000000 
	C768.897705,243.226410 768.023499,225.226013 766.986572,207.234985 
	C766.158691,192.869690 763.149780,178.934204 759.149963,165.100174 
	C751.256104,137.798004 738.159729,113.871368 717.052429,94.384590 
	C704.205505,82.523918 689.899841,73.246902 674.272400,65.588135 
	C652.273621,54.806774 628.770203,49.906982 604.701843,48.259090 
	C589.369629,47.209339 573.858826,48.476738 558.440979,49.050625 
	C542.728821,49.635468 527.478882,53.048546 512.552063,57.825603 
	C481.611908,67.727425 454.780182,83.928856 433.473145,108.906357 
	C422.667114,121.573860 414.291260,135.613342 408.121674,150.919968 
	C397.168427,178.094681 393.182831,206.766129 393.161469,235.751678 
	C393.084320,340.339325 393.574005,444.927917 394.128693,549.514709 
	C394.191162,561.296814 395.128204,573.233398 397.237488,584.810913 
	C401.052063,605.748047 407.379669,625.947144 418.133057,644.612427 
	C432.338440,669.269470 452.214081,688.061584 476.789795,701.891846 
	C503.420380,716.878601 532.660400,723.217041 562.794617,724.743347 
	C578.407532,725.534180 594.173828,723.960388 609.836365,722.930969 
	C627.143250,721.793579 643.758667,717.239380 659.846863,710.926880 
	C678.612854,703.563660 695.906982,693.533142 711.130188,680.282043 
	C730.120483,663.751892 744.296692,643.703064 753.392151,620.155151 
	C760.285828,602.307434 764.788147,583.908264 766.529602,563.968750 
M213.500000,724.000000 
	C250.255157,724.000000 287.010315,724.000000 323.639771,724.000000 
	C323.639771,687.286682 323.639771,651.226929 323.639771,614.869751 
	C264.339630,614.869751 205.399094,614.869751 146.247284,614.869751 
	C146.247284,554.511475 146.247284,494.453827 146.247284,433.918152 
	C197.218918,433.918152 247.945755,433.918152 298.686005,433.918152 
	C298.686005,397.713135 298.686005,361.987152 298.686005,325.784790 
	C247.646820,325.784790 196.919983,325.784790 146.378891,325.784790 
	C146.378891,269.247498 146.378891,213.189026 146.378891,156.832458 
	C205.697845,156.832458 264.638336,156.832458 323.731964,156.832458 
	C323.731964,120.472328 323.731964,84.413261 323.731964,48.296555 
	C225.408188,48.296555 127.352722,48.296555 29.000000,48.296555 
	C29.000000,50.563835 29.000000,52.537365 29.000000,54.510899 
	C29.000000,260.993744 28.994991,467.476624 29.041210,673.959473 
	C29.042011,677.546204 29.447622,681.167419 30.024954,684.713806 
	C33.475693,705.911255 53.270187,723.961792 76.011337,723.985779 
	C121.507507,724.033752 167.003769,724.000000 213.500000,724.000000 
M1434.482056,880.041565 
	C1434.198608,880.631165 1433.952148,881.242065 1433.626465,881.807373 
	C1424.755005,897.207520 1415.928711,912.634033 1406.982178,927.990540 
	C1398.201660,943.062134 1389.259766,958.039795 1380.467041,973.104248 
	C1377.139893,978.804932 1374.031128,984.633057 1370.491943,990.998047 
	C1390.706421,990.998047 1410.017578,991.043823 1429.327148,990.887634 
	C1430.521851,990.877991 1432.167603,989.539490 1432.822388,988.378784 
	C1443.720581,969.057739 1454.570435,949.708252 1465.273804,930.278564 
	C1476.222778,910.403015 1487.002808,890.434265 1497.852783,870.504089 
	C1501.783325,863.284058 1505.701782,856.057373 1509.925537,848.281738 
	C1522.904663,871.714783 1535.420288,894.394592 1548.017578,917.029114 
	C1558.725098,936.268188 1569.216431,955.638428 1580.426880,974.581665 
	C1585.461914,983.089661 1592.788330,989.509827 1603.604248,990.041748 
	C1609.201294,990.317017 1614.791626,990.888000 1620.389404,990.956421 
	C1632.154297,991.100037 1643.922119,991.000000 1656.371338,991.000000 
	C1654.851685,987.883789 1653.822266,985.333618 1652.433472,982.997070 
	C1643.523560,968.006226 1634.468750,953.101379 1625.587280,938.093811 
	C1612.221436,915.508789 1599.000244,892.838257 1585.639893,870.250061 
	C1573.443359,849.629639 1561.083496,829.105469 1548.962646,808.440918 
	C1547.395874,805.769775 1545.721802,804.902466 1542.711548,804.929993 
	C1526.548706,805.078125 1510.383423,804.940247 1494.219604,805.020752 
	C1483.350342,805.074890 1475.344849,810.703186 1470.018799,819.515015 
	C1458.043823,839.327454 1446.637695,859.483704 1434.482056,880.041565 
M868.477295,969.045349 
	C871.711792,963.196594 874.949097,957.349426 878.180481,951.498840 
	C892.772888,925.077881 907.397949,898.674866 921.933777,872.222778 
	C926.269287,864.333191 930.353027,856.305176 934.739502,847.985168 
	C936.971436,851.902283 939.037720,855.399597 940.981934,858.963562 
	C949.106934,873.857788 957.042175,888.857727 965.332642,903.658936 
	C978.002502,926.278870 991.195190,948.610291 1003.603760,971.370667 
	C1010.785461,984.543640 1021.270081,991.046875 1036.099609,991.007629 
	C1049.593872,990.971863 1063.088379,991.007141 1076.582764,990.989441 
	C1077.984131,990.987610 1079.385376,990.838013 1081.390625,990.722107 
	C1077.912476,984.484131 1074.882202,978.750305 1071.578369,973.178650 
	C1060.190308,953.973633 1048.696533,934.831177 1037.262329,915.653442 
	C1026.999512,898.440491 1016.734070,881.229065 1006.521301,863.986511 
	C995.476685,845.339478 984.415222,826.701233 973.572937,807.936829 
	C972.136841,805.451416 970.588135,804.949585 968.071960,804.960938 
	C951.412598,805.036316 934.752563,804.983154 918.092957,805.029846 
	C916.651428,805.033875 915.192383,805.375366 913.773010,805.698669 
	C902.528503,808.259705 896.313538,816.431702 890.995972,825.810852 
	C882.154785,841.405090 873.109192,856.883850 864.100586,872.382690 
	C855.172058,887.744080 846.162720,903.058472 837.225403,918.414673 
	C826.651123,936.583435 816.099121,954.765198 805.573486,972.962036 
	C802.259766,978.690918 799.062317,984.486938 795.789978,990.290588 
	C796.601990,990.680237 796.877930,990.928101 797.154419,990.928650 
	C816.145569,990.964722 835.136902,991.015564 854.127441,990.912781 
	C855.257629,990.906677 856.856873,989.931824 857.430115,988.940613 
	C861.101807,982.592163 864.547485,976.113037 868.477295,969.045349 
M350.033691,827.455261 
	C349.210754,828.281555 348.400940,829.121460 347.562897,829.932129 
	C329.893219,847.026917 331.560150,875.584167 353.319183,889.907166 
	C366.642395,898.677124 381.625885,902.882568 396.722290,907.017090 
	C414.571136,911.905518 432.497253,916.575439 450.127747,922.166626 
	C457.275574,924.433533 463.486816,928.739441 464.139771,937.945374 
	C464.671356,945.439636 457.098877,952.790283 448.461334,956.026367 
	C428.595734,963.469177 408.016541,961.773315 387.510712,960.916626 
	C383.603302,960.753418 379.719849,959.958923 375.831329,959.412964 
	C366.359711,958.083191 356.891571,956.728394 346.992126,955.322571 
	C345.722748,966.378052 344.459595,977.379272 343.169281,988.617004 
	C344.350922,989.070068 345.522217,989.849365 346.743652,989.937988 
	C366.132141,991.344238 385.510559,993.123657 404.927032,993.815002 
	C415.421539,994.188599 425.982147,992.647888 436.515259,992.008789 
	C450.610504,991.153564 464.333710,988.308838 477.715637,983.937195 
	C494.397949,978.487488 510.205505,971.371643 520.859497,956.536377 
	C529.565186,944.414124 531.796936,931.264221 525.055908,917.399353 
	C518.628967,904.180542 506.536285,897.602417 493.644012,893.237549 
	C476.277618,887.357910 458.412659,882.939697 440.728149,878.014526 
	C428.661621,874.654053 416.291443,872.033020 405.716827,864.872986 
	C399.586670,860.722351 396.433136,853.956787 402.323029,846.414246 
	C404.905853,843.106750 408.595459,839.604980 412.433807,838.540833 
	C422.740601,835.683533 433.320038,833.155029 443.939453,832.265503 
	C454.436707,831.386108 465.122284,832.533630 475.710724,833.076050 
	C479.763672,833.283569 483.763733,834.377136 487.810303,834.890198 
	C493.742523,835.642273 499.694885,836.235474 505.815826,836.916016 
	C506.940155,826.199890 508.014984,815.956055 509.070374,805.897156 
	C508.526031,805.478027 508.293610,805.145569 508.028870,805.117493 
	C498.078003,804.061340 488.122772,802.164917 478.171082,802.181396 
	C457.140533,802.216187 436.086548,800.824829 415.067871,803.867004 
	C391.912598,807.218384 369.523895,812.161255 350.033691,827.455261 
M760.984009,954.511841 
	C760.018860,954.676758 759.054932,954.849304 758.088379,955.005432 
	C738.296753,958.201721 718.512329,961.607239 698.341125,958.985596 
	C688.621948,957.722351 678.710510,957.147217 669.263489,954.764404 
	C654.542664,951.051331 641.275757,944.133850 632.562195,930.996948 
	C624.071716,918.196716 621.698059,904.084778 623.809998,888.792847 
	C625.951477,873.287231 633.633667,861.655701 645.893066,852.548279 
	C661.495605,840.957336 679.714661,837.229431 698.431335,836.202759 
	C711.470947,835.487549 724.618713,836.567810 737.709534,837.069519 
	C741.608032,837.218933 745.469666,838.187622 749.361938,838.670532 
	C756.449768,839.549927 763.547913,840.346802 770.481567,841.159363 
	C772.746582,829.784180 774.864197,819.149292 777.188965,807.473816 
	C759.223755,805.954712 741.776733,803.877991 724.273743,803.155151 
	C703.481018,802.296448 682.741638,803.608337 662.097229,806.879150 
	C641.630737,810.121765 621.936646,815.525879 603.863159,825.727295 
	C592.294312,832.257080 581.907288,840.343262 573.849487,851.287781 
	C565.034180,863.261169 559.571472,876.250000 557.784119,891.095642 
	C556.224426,904.050354 556.596924,916.722168 560.629761,929.082031 
	C567.823425,951.129578 583.421082,965.912537 603.676941,975.726501 
	C628.655029,987.828369 655.720398,991.653198 683.098022,992.886230 
	C705.597351,993.899536 728.105225,992.816772 750.462830,989.929504 
	C759.959167,988.703186 769.359436,986.733765 779.387024,985.001221 
	C777.505676,976.444885 775.782959,968.541260 774.023376,960.645874 
	C773.428040,957.974182 773.539185,954.291565 771.847473,952.980286 
	C770.425415,951.878174 766.858582,953.572449 764.233093,953.976196 
	C763.415405,954.101929 762.571289,954.056274 760.984009,954.511841 
M172.496521,913.000000 
	C177.589188,913.000000 182.681870,913.000000 187.595947,913.000000 
	C187.595947,902.239441 187.595947,892.182800 187.595947,881.794312 
	C154.258072,881.794312 121.323280,881.794312 88.328827,881.794312 
	C88.328827,866.391296 88.328827,851.337341 88.328827,835.765381 
	C123.709526,835.765381 158.764221,835.765381 193.745178,835.765381 
	C193.745178,825.304565 193.745178,815.367615 193.745178,805.301086 
	C138.440659,805.301086 83.391411,805.301086 28.422033,805.301086 
	C28.238028,805.903442 28.063486,806.208252 28.063314,806.513123 
	C28.034302,858.004822 27.904308,909.496826 28.079357,960.987915 
	C28.123945,974.103943 39.186043,987.903748 51.973751,989.700989 
	C63.676483,991.345825 75.665306,990.955078 88.078323,991.484863 
	C88.078323,964.782410 88.078323,939.058838 88.078323,913.000000 
	C116.232872,913.000000 143.865494,913.000000 172.496521,913.000000 
M1203.500000,991.000000 
	C1221.582275,991.000000 1239.664551,991.000000 1257.609497,991.000000 
	C1257.609497,979.592041 1257.609497,968.871704 1257.609497,957.832031 
	C1224.293945,957.832031 1191.367920,957.832031 1157.946533,957.832031 
	C1157.946533,906.798462 1157.946533,856.093872 1157.946533,805.319702 
	C1137.731934,805.319702 1118.017578,805.319702 1098.202148,805.319702 
	C1098.118408,806.272827 1098.012207,806.917725 1098.012085,807.562683 
	C1098.002808,858.868530 1097.873291,910.175293 1098.206421,961.478943 
	C1098.238281,966.399841 1100.347778,971.774292 1102.890747,976.120178 
	C1109.290283,987.056519 1119.946655,990.878235 1132.037964,990.955811 
	C1155.524414,991.106567 1179.012573,991.000000 1203.500000,991.000000 
M1347.000000,927.500000 
	C1347.000000,886.751465 1347.000000,846.002930 1347.000000,805.393921 
	C1326.257446,805.393921 1306.203857,805.393921 1286.000000,805.393921 
	C1286.000000,807.615295 1286.000000,809.443909 1286.000000,811.272522 
	C1286.000000,857.096558 1285.968994,902.920715 1286.043579,948.744629 
	C1286.051880,953.839417 1286.580444,958.940002 1287.007080,964.026184 
	C1287.901245,974.689270 1294.106689,982.126465 1302.952393,986.834900 
	C1316.813477,994.213013 1332.014893,989.888916 1347.000000,991.148376 
	C1347.000000,969.765564 1347.000000,949.132812 1347.000000,927.500000 
M233.000000,843.500000 
	C233.000015,882.152466 232.790695,920.806702 233.122650,959.456360 
	C233.227493,971.662048 238.506210,981.774536 250.229309,986.883301 
	C255.331207,989.106689 261.098175,990.417908 266.660339,990.829529 
	C275.357208,991.473083 284.136658,991.000000 292.745178,991.000000 
	C292.745178,928.610046 292.745178,867.022095 292.745178,805.302002 
	C272.772491,805.302002 253.055908,805.302002 233.000000,805.302002 
	C233.000000,817.900635 233.000000,830.200317 233.000000,843.500000 
M1489.512817,960.000000 
	C1506.162598,959.999939 1522.814453,960.119324 1539.459961,959.854919 
	C1541.640747,959.820251 1544.734619,958.355652 1545.733398,956.601318 
	C1547.242676,953.950439 1545.342896,951.323059 1542.904419,949.441589 
	C1535.398926,943.650330 1527.994751,937.725952 1520.436035,932.005493 
	C1515.827881,928.518066 1510.415039,924.561401 1504.891357,928.284546 
	C1494.212158,935.482605 1484.034302,943.480957 1474.093262,951.686401 
	C1470.630127,954.544922 1473.221436,959.593079 1478.034302,959.945007 
	C1481.512207,960.199341 1485.023560,959.998108 1489.512817,960.000000 
M970.988464,956.306763 
	C970.099976,954.148315 969.805725,951.280701 968.221252,949.952881 
	C960.952393,943.861816 953.285767,938.248047 945.834351,932.371216 
	C940.122620,927.866394 934.018433,924.580994 927.198914,929.465942 
	C918.161743,935.939514 909.379639,942.799133 900.848694,949.924683 
	C899.114197,951.373474 898.135986,954.858398 898.459106,957.174377 
	C898.626770,958.376038 902.395142,959.855774 904.550537,959.877930 
	C924.546448,960.083984 944.546265,960.085938 964.542053,959.874451 
	C966.679260,959.851929 968.798035,958.093018 970.988464,956.306763 
z"/>
<path fill="#204A9A" opacity="1.000000" stroke="none" 
	d="
M1202.314575,618.259644 
	C1193.300049,642.013977 1179.391724,662.052856 1160.773315,678.577576 
	C1137.864258,698.910400 1111.141113,712.328613 1081.225830,718.854980 
	C1069.633545,721.384033 1057.739136,722.817932 1045.904053,723.860413 
	C1034.702759,724.846924 1023.360352,725.423950 1012.147278,724.854858 
	C981.306519,723.289551 951.465698,717.224792 924.140320,701.994934 
	C887.789490,681.734436 863.463684,651.468933 851.218262,611.852722 
	C847.357117,599.360779 844.744690,586.302734 843.241699,573.309387 
	C841.518860,558.415100 841.113647,543.305420 841.088928,528.287781 
	C840.919434,425.481049 840.444458,322.669403 841.292908,219.869431 
	C841.601685,182.454681 852.247131,147.188828 874.405396,116.401237 
	C887.078613,98.792435 903.614197,85.136223 922.391907,74.146111 
	C942.236694,62.531483 963.645508,55.346024 986.079102,51.105717 
	C1008.168457,46.930458 1030.599976,47.241760 1052.873413,48.232689 
	C1073.055542,49.130577 1092.816040,53.650135 1111.689697,61.089287 
	C1127.177368,67.193863 1141.464233,75.435318 1154.571899,85.890610 
	C1167.797485,96.439873 1178.918945,108.698044 1187.971191,122.899689 
	C1198.001343,138.635773 1205.200806,155.654388 1208.851196,173.905579 
	C1211.595459,187.625443 1213.325928,201.576660 1214.883423,215.494751 
	C1215.855591,224.182663 1215.950684,233.000198 1215.956665,241.759903 
	C1216.024902,341.567566 1216.046997,441.375336 1215.967285,541.183044 
	C1215.947144,566.346680 1212.000488,590.919861 1203.673218,614.727783 
	C1203.298706,615.798828 1202.929688,616.871765 1202.314575,618.259644 
M964.996338,569.427856 
	C965.348206,570.675476 965.597290,571.963379 966.067688,573.164551 
	C971.185669,586.233643 977.528931,598.662048 989.514282,606.710205 
	C1005.937805,617.738708 1024.401245,620.463684 1043.494873,616.634277 
	C1066.505859,612.019165 1080.483398,596.653870 1088.985718,575.596924 
	C1096.025146,558.162537 1097.742920,539.689636 1097.840454,521.269104 
	C1098.227905,448.116547 1098.058838,374.960663 1097.968628,301.806122 
	C1097.936401,275.666290 1098.966919,249.487457 1095.051880,223.468292 
	C1092.731567,208.046890 1088.524414,193.427780 1079.829712,180.258591 
	C1073.815918,171.150101 1066.114014,164.328140 1056.059448,159.900803 
	C1042.753052,154.041565 1029.022583,154.018005 1015.051147,156.000580 
	C995.971130,158.708084 981.869751,168.506287 972.783203,185.580551 
	C962.458069,204.982330 959.266052,226.222595 959.226318,247.549698 
	C959.044495,345.127502 959.534607,442.707764 960.210388,540.284180 
	C960.275818,549.733887 963.278809,559.163147 964.996338,569.427856 
z"/>
<path fill="#204A9A" opacity="1.000000" stroke="none" 
	d="
M766.301514,564.371582 
	C764.788147,583.908264 760.285828,602.307434 753.392151,620.155151 
	C744.296692,643.703064 730.120483,663.751892 711.130188,680.282043 
	C695.906982,693.533142 678.612854,703.563660 659.846863,710.926880 
	C643.758667,717.239380 627.143250,721.793579 609.836365,722.930969 
	C594.173828,723.960388 578.407532,725.534180 562.794617,724.743347 
	C532.660400,723.217041 503.420380,716.878601 476.789795,701.891846 
	C452.214081,688.061584 432.338440,669.269470 418.133057,644.612427 
	C407.379669,625.947144 401.052063,605.748047 397.237488,584.810913 
	C395.128204,573.233398 394.191162,561.296814 394.128693,549.514709 
	C393.574005,444.927917 393.084320,340.339325 393.161469,235.751678 
	C393.182831,206.766129 397.168427,178.094681 408.121674,150.919968 
	C414.291260,135.613342 422.667114,121.573860 433.473145,108.906357 
	C454.780182,83.928856 481.611908,67.727425 512.552063,57.825603 
	C527.478882,53.048546 542.728821,49.635468 558.440979,49.050625 
	C573.858826,48.476738 589.369629,47.209339 604.701843,48.259090 
	C628.770203,49.906982 652.273621,54.806774 674.272400,65.588135 
	C689.899841,73.246902 704.205505,82.523918 717.052429,94.384590 
	C738.159729,113.871368 751.256104,137.798004 759.149963,165.100174 
	C763.149780,178.934204 766.158691,192.869690 766.986572,207.234985 
	C768.023499,225.226013 768.897705,243.226410 769.882874,262.000000 
	C767.097107,262.000000 765.347229,262.000000 763.597290,262.000000 
	C733.099487,262.000000 702.601562,262.030701 672.103821,261.985870 
	C658.708801,261.966187 650.061523,253.737442 650.117065,240.098145 
	C650.174255,226.040222 648.988464,212.184540 644.356628,198.947220 
	C636.150146,175.493942 620.454224,160.059967 595.201233,155.998077 
	C576.354797,152.966675 558.218262,154.808075 542.119568,166.047363 
	C530.948914,173.846130 524.445374,185.338043 520.189087,197.866501 
	C515.997803,210.203629 513.252441,222.971298 512.984070,236.138947 
	C512.720642,249.067642 512.057617,261.993530 512.044617,274.921112 
	C511.958466,360.748291 511.810333,446.576294 512.158936,532.402100 
	C512.229187,549.698792 515.475525,566.765930 522.970947,582.647949 
	C532.568542,602.984314 548.570862,614.181213 570.982727,617.162659 
	C585.231323,619.058105 598.832947,617.755798 611.615051,611.614685 
	C631.536133,602.043884 642.493652,585.159424 646.828674,564.058472 
	C648.827759,554.327820 649.553284,544.238647 649.855896,534.281555 
	C650.211670,522.573853 657.235107,513.529236 670.193359,513.796753 
	C700.844788,514.429443 731.518066,514.000000 762.182556,514.000000 
	C763.971985,514.000000 765.761353,514.000000 768.618164,514.000000 
	C767.908875,530.970093 767.219238,547.469421 766.301514,564.371582 
z"/>
<path fill="#204A9A" opacity="1.000000" stroke="none" 
	d="
M213.000000,724.000000 
	C167.003769,724.000000 121.507507,724.033752 76.011337,723.985779 
	C53.270187,723.961792 33.475693,705.911255 30.024954,684.713806 
	C29.447622,681.167419 29.042011,677.546204 29.041210,673.959473 
	C28.994991,467.476624 29.000000,260.993744 29.000000,54.510899 
	C29.000000,52.537365 29.000000,50.563835 29.000000,48.296555 
	C127.352722,48.296555 225.408188,48.296555 323.731964,48.296555 
	C323.731964,84.413261 323.731964,120.472328 323.731964,156.832458 
	C264.638336,156.832458 205.697845,156.832458 146.378891,156.832458 
	C146.378891,213.189026 146.378891,269.247498 146.378891,325.784790 
	C196.919983,325.784790 247.646820,325.784790 298.686005,325.784790 
	C298.686005,361.987152 298.686005,397.713135 298.686005,433.918152 
	C247.945755,433.918152 197.218918,433.918152 146.247284,433.918152 
	C146.247284,494.453827 146.247284,554.511475 146.247284,614.869751 
	C205.399094,614.869751 264.339630,614.869751 323.639771,614.869751 
	C323.639771,651.226929 323.639771,687.286682 323.639771,724.000000 
	C287.010315,724.000000 250.255157,724.000000 213.000000,724.000000 
z"/>
<path fill="#204A9A" opacity="1.000000" stroke="none" 
	d="
M1541.833740,382.999084 
	C1541.889282,381.003296 1541.993042,379.007507 1541.993164,377.011749 
	C1542.000854,269.533936 1542.000000,162.056107 1542.000000,54.578289 
	C1542.000000,52.598694 1542.000000,50.619095 1542.000000,48.320641 
	C1580.636841,48.320641 1619.026001,48.320641 1657.708008,48.320641 
	C1657.708008,273.668335 1657.708008,499.029938 1657.708008,725.000000 
	C1655.960938,725.000000 1654.194946,725.000000 1652.428955,725.000000 
	C1628.433838,725.000000 1604.438843,724.996887 1580.443726,725.001099 
	C1564.214478,725.003967 1547.649536,713.202148 1542.810425,697.286804 
	C1542.253052,695.453796 1542.032959,693.450256 1542.032227,691.525696 
	C1541.995361,600.044495 1542.000000,508.563324 1542.453857,416.555420 
	C1545.400513,416.018311 1547.898560,416.107788 1550.385132,415.977051 
	C1555.725952,415.696259 1560.822388,412.191772 1561.900513,408.188873 
	C1563.189087,403.403656 1561.252197,398.595306 1556.635986,395.281616 
	C1554.788208,393.955261 1552.730225,392.891113 1551.011597,391.422394 
	C1547.856934,388.726288 1544.882935,385.818604 1541.833740,382.999084 
z"/>
<path fill="#204A9A" opacity="1.000000" stroke="none" 
	d="
M1414.000244,416.165588 
	C1414.000244,518.932556 1414.000244,621.699524 1414.000244,725.000000 
	C1411.876099,725.000000 1410.100098,725.000000 1408.324219,725.000000 
	C1385.664429,725.000000 1363.004639,724.996887 1340.344849,725.000977 
	C1319.820557,725.004700 1301.928345,709.012695 1299.035645,689.065857 
	C1298.424561,684.853210 1298.042480,680.565552 1298.041504,676.312317 
	C1297.994019,469.041687 1298.000000,261.771027 1298.000000,54.500381 
	C1298.000000,52.528137 1298.000000,50.555889 1298.000000,48.293304 
	C1336.689453,48.293304 1375.075928,48.293304 1414.021362,48.293304 
	C1414.021362,159.259216 1414.021362,270.165497 1413.940430,381.845856 
	C1408.073242,387.137512 1402.331787,391.714203 1396.483887,396.150421 
	C1393.000488,398.792908 1391.104004,402.184723 1392.113647,406.435028 
	C1393.030518,410.294708 1394.710815,414.214752 1399.296753,414.905304 
	C1404.151123,415.636261 1409.095337,415.770630 1414.000244,416.165588 
z"/>
<path fill="#EE7B20" opacity="1.000000" stroke="none" 
	d="
M1434.740967,879.770752 
	C1446.637695,859.483704 1458.043823,839.327454 1470.018799,819.515015 
	C1475.344849,810.703186 1483.350342,805.074890 1494.219604,805.020752 
	C1510.383423,804.940247 1526.548706,805.078125 1542.711548,804.929993 
	C1545.721802,804.902466 1547.395874,805.769775 1548.962646,808.440918 
	C1561.083496,829.105469 1573.443359,849.629639 1585.639893,870.250061 
	C1599.000244,892.838257 1612.221436,915.508789 1625.587280,938.093811 
	C1634.468750,953.101379 1643.523560,968.006226 1652.433472,982.997070 
	C1653.822266,985.333618 1654.851685,987.883789 1656.371338,991.000000 
	C1643.922119,991.000000 1632.154297,991.100037 1620.389404,990.956421 
	C1614.791626,990.888000 1609.201294,990.317017 1603.604248,990.041748 
	C1592.788330,989.509827 1585.461914,983.089661 1580.426880,974.581665 
	C1569.216431,955.638428 1558.725098,936.268188 1548.017578,917.029114 
	C1535.420288,894.394592 1522.904663,871.714783 1509.925537,848.281738 
	C1505.701782,856.057373 1501.783325,863.284058 1497.852783,870.504089 
	C1487.002808,890.434265 1476.222778,910.403015 1465.273804,930.278564 
	C1454.570435,949.708252 1443.720581,969.057739 1432.822388,988.378784 
	C1432.167603,989.539490 1430.521851,990.877991 1429.327148,990.887634 
	C1410.017578,991.043823 1390.706421,990.998047 1370.491943,990.998047 
	C1374.031128,984.633057 1377.139893,978.804932 1380.467041,973.104248 
	C1389.259766,958.039795 1398.201660,943.062134 1406.982178,927.990540 
	C1415.928711,912.634033 1424.755005,897.207520 1433.626465,881.807373 
	C1433.952148,881.242065 1434.198608,880.631165 1434.740967,879.770752 
z"/>
<path fill="#EE7B20" opacity="1.000000" stroke="none" 
	d="
M868.272400,969.361084 
	C864.547485,976.113037 861.101807,982.592163 857.430115,988.940613 
	C856.856873,989.931824 855.257629,990.906677 854.127441,990.912781 
	C835.136902,991.015564 816.145569,990.964722 797.154419,990.928650 
	C796.877930,990.928101 796.601990,990.680237 795.789978,990.290588 
	C799.062317,984.486938 802.259766,978.690918 805.573486,972.962036 
	C816.099121,954.765198 826.651123,936.583435 837.225403,918.414673 
	C846.162720,903.058472 855.172058,887.744080 864.100586,872.382690 
	C873.109192,856.883850 882.154785,841.405090 890.995972,825.810852 
	C896.313538,816.431702 902.528503,808.259705 913.773010,805.698669 
	C915.192383,805.375366 916.651428,805.033875 918.092957,805.029846 
	C934.752563,804.983154 951.412598,805.036316 968.071960,804.960938 
	C970.588135,804.949585 972.136841,805.451416 973.572937,807.936829 
	C984.415222,826.701233 995.476685,845.339478 1006.521301,863.986511 
	C1016.734070,881.229065 1026.999512,898.440491 1037.262329,915.653442 
	C1048.696533,934.831177 1060.190308,953.973633 1071.578369,973.178650 
	C1074.882202,978.750305 1077.912476,984.484131 1081.390625,990.722107 
	C1079.385376,990.838013 1077.984131,990.987610 1076.582764,990.989441 
	C1063.088379,991.007141 1049.593872,990.971863 1036.099609,991.007629 
	C1021.270081,991.046875 1010.785461,984.543640 1003.603760,971.370667 
	C991.195190,948.610291 978.002502,926.278870 965.332642,903.658936 
	C957.042175,888.857727 949.106934,873.857788 940.981934,858.963562 
	C939.037720,855.399597 936.971436,851.902283 934.739502,847.985168 
	C930.353027,856.305176 926.269287,864.333191 921.933777,872.222778 
	C907.397949,898.674866 892.772888,925.077881 878.180481,951.498840 
	C874.949097,957.349426 871.711792,963.196594 868.272400,969.361084 
z"/>
<path fill="#EE7B20" opacity="1.000000" stroke="none" 
	d="
M350.295715,827.208679 
	C369.523895,812.161255 391.912598,807.218384 415.067871,803.867004 
	C436.086548,800.824829 457.140533,802.216187 478.171082,802.181396 
	C488.122772,802.164917 498.078003,804.061340 508.028870,805.117493 
	C508.293610,805.145569 508.526031,805.478027 509.070374,805.897156 
	C508.014984,815.956055 506.940155,826.199890 505.815826,836.916016 
	C499.694885,836.235474 493.742523,835.642273 487.810303,834.890198 
	C483.763733,834.377136 479.763672,833.283569 475.710724,833.076050 
	C465.122284,832.533630 454.436707,831.386108 443.939453,832.265503 
	C433.320038,833.155029 422.740601,835.683533 412.433807,838.540833 
	C408.595459,839.604980 404.905853,843.106750 402.323029,846.414246 
	C396.433136,853.956787 399.586670,860.722351 405.716827,864.872986 
	C416.291443,872.033020 428.661621,874.654053 440.728149,878.014526 
	C458.412659,882.939697 476.277618,887.357910 493.644012,893.237549 
	C506.536285,897.602417 518.628967,904.180542 525.055908,917.399353 
	C531.796936,931.264221 529.565186,944.414124 520.859497,956.536377 
	C510.205505,971.371643 494.397949,978.487488 477.715637,983.937195 
	C464.333710,988.308838 450.610504,991.153564 436.515259,992.008789 
	C425.982147,992.647888 415.421539,994.188599 404.927032,993.815002 
	C385.510559,993.123657 366.132141,991.344238 346.743652,989.937988 
	C345.522217,989.849365 344.350922,989.070068 343.169281,988.617004 
	C344.459595,977.379272 345.722748,966.378052 346.992126,955.322571 
	C356.891571,956.728394 366.359711,958.083191 375.831329,959.412964 
	C379.719849,959.958923 383.603302,960.753418 387.510712,960.916626 
	C408.016541,961.773315 428.595734,963.469177 448.461334,956.026367 
	C457.098877,952.790283 464.671356,945.439636 464.139771,937.945374 
	C463.486816,928.739441 457.275574,924.433533 450.127747,922.166626 
	C432.497253,916.575439 414.571136,911.905518 396.722290,907.017090 
	C381.625885,902.882568 366.642395,898.677124 353.319183,889.907166 
	C331.560150,875.584167 329.893219,847.026917 347.562897,829.932129 
	C348.400940,829.121460 349.210754,828.281555 350.295715,827.208679 
z"/>
<path fill="#EE7B20" opacity="1.000000" stroke="none" 
	d="
M761.361633,954.300415 
	C762.571289,954.056274 763.415405,954.101929 764.233093,953.976196 
	C766.858582,953.572449 770.425415,951.878174 771.847473,952.980286 
	C773.539185,954.291565 773.428040,957.974182 774.023376,960.645874 
	C775.782959,968.541260 777.505676,976.444885 779.387024,985.001221 
	C769.359436,986.733765 759.959167,988.703186 750.462830,989.929504 
	C728.105225,992.816772 705.597351,993.899536 683.098022,992.886230 
	C655.720398,991.653198 628.655029,987.828369 603.676941,975.726501 
	C583.421082,965.912537 567.823425,951.129578 560.629761,929.082031 
	C556.596924,916.722168 556.224426,904.050354 557.784119,891.095642 
	C559.571472,876.250000 565.034180,863.261169 573.849487,851.287781 
	C581.907288,840.343262 592.294312,832.257080 603.863159,825.727295 
	C621.936646,815.525879 641.630737,810.121765 662.097229,806.879150 
	C682.741638,803.608337 703.481018,802.296448 724.273743,803.155151 
	C741.776733,803.877991 759.223755,805.954712 777.188965,807.473816 
	C774.864197,819.149292 772.746582,829.784180 770.481567,841.159363 
	C763.547913,840.346802 756.449768,839.549927 749.361938,838.670532 
	C745.469666,838.187622 741.608032,837.218933 737.709534,837.069519 
	C724.618713,836.567810 711.470947,835.487549 698.431335,836.202759 
	C679.714661,837.229431 661.495605,840.957336 645.893066,852.548279 
	C633.633667,861.655701 625.951477,873.287231 623.809998,888.792847 
	C621.698059,904.084778 624.071716,918.196716 632.562195,930.996948 
	C641.275757,944.133850 654.542664,951.051331 669.263489,954.764404 
	C678.710510,957.147217 688.621948,957.722351 698.341125,958.985596 
	C718.512329,961.607239 738.296753,958.201721 758.088379,955.005432 
	C759.054932,954.849304 760.018860,954.676758 761.361633,954.300415 
z"/>
<path fill="#EE7B20" opacity="1.000000" stroke="none" 
	d="
M171.997314,913.000000 
	C143.865494,913.000000 116.232872,913.000000 88.078323,913.000000 
	C88.078323,939.058838 88.078323,964.782410 88.078323,991.484863 
	C75.665306,990.955078 63.676483,991.345825 51.973751,989.700989 
	C39.186043,987.903748 28.123945,974.103943 28.079357,960.987915 
	C27.904308,909.496826 28.034302,858.004822 28.063314,806.513123 
	C28.063486,806.208252 28.238028,805.903442 28.422033,805.301086 
	C83.391411,805.301086 138.440659,805.301086 193.745178,805.301086 
	C193.745178,815.367615 193.745178,825.304565 193.745178,835.765381 
	C158.764221,835.765381 123.709526,835.765381 88.328827,835.765381 
	C88.328827,851.337341 88.328827,866.391296 88.328827,881.794312 
	C121.323280,881.794312 154.258072,881.794312 187.595947,881.794312 
	C187.595947,892.182800 187.595947,902.239441 187.595947,913.000000 
	C182.681870,913.000000 177.589188,913.000000 171.997314,913.000000 
z"/>
<path fill="#EE7B20" opacity="1.000000" stroke="none" 
	d="
M1203.000000,991.000000 
	C1179.012573,991.000000 1155.524414,991.106567 1132.037964,990.955811 
	C1119.946655,990.878235 1109.290283,987.056519 1102.890747,976.120178 
	C1100.347778,971.774292 1098.238281,966.399841 1098.206421,961.478943 
	C1097.873291,910.175293 1098.002808,858.868530 1098.012085,807.562683 
	C1098.012207,806.917725 1098.118408,806.272827 1098.202148,805.319702 
	C1118.017578,805.319702 1137.731934,805.319702 1157.946533,805.319702 
	C1157.946533,856.093872 1157.946533,906.798462 1157.946533,957.832031 
	C1191.367920,957.832031 1224.293945,957.832031 1257.609497,957.832031 
	C1257.609497,968.871704 1257.609497,979.592041 1257.609497,991.000000 
	C1239.664551,991.000000 1221.582275,991.000000 1203.000000,991.000000 
z"/>
<path fill="#EE7B20" opacity="1.000000" stroke="none" 
	d="
M1347.000000,928.000000 
	C1347.000000,949.132812 1347.000000,969.765564 1347.000000,991.148376 
	C1332.014893,989.888916 1316.813477,994.213013 1302.952393,986.834900 
	C1294.106689,982.126465 1287.901245,974.689270 1287.007080,964.026184 
	C1286.580444,958.940002 1286.051880,953.839417 1286.043579,948.744629 
	C1285.968994,902.920715 1286.000000,857.096558 1286.000000,811.272522 
	C1286.000000,809.443909 1286.000000,807.615295 1286.000000,805.393921 
	C1306.203857,805.393921 1326.257446,805.393921 1347.000000,805.393921 
	C1347.000000,846.002930 1347.000000,886.751465 1347.000000,928.000000 
z"/>
<path fill="#EE7B20" opacity="1.000000" stroke="none" 
	d="
M233.000000,843.000000 
	C233.000000,830.200317 233.000000,817.900635 233.000000,805.302002 
	C253.055908,805.302002 272.772491,805.302002 292.745178,805.302002 
	C292.745178,867.022095 292.745178,928.610046 292.745178,991.000000 
	C284.136658,991.000000 275.357208,991.473083 266.660339,990.829529 
	C261.098175,990.417908 255.331207,989.106689 250.229309,986.883301 
	C238.506210,981.774536 233.227493,971.662048 233.122650,959.456360 
	C232.790695,920.806702 233.000015,882.152466 233.000000,843.000000 
z"/>
<path fill="#EE7B20" opacity="1.000000" stroke="none" 
	d="
M1414.464478,416.095886 
	C1409.095337,415.770630 1404.151123,415.636261 1399.296753,414.905304 
	C1394.710815,414.214752 1393.030518,410.294708 1392.113647,406.435028 
	C1391.104004,402.184723 1393.000488,398.792908 1396.483887,396.150421 
	C1402.331787,391.714203 1408.073242,387.137512 1414.012817,382.309448 
	C1421.572266,376.371246 1428.996826,370.767487 1436.379761,365.109436 
	C1444.678711,358.749451 1452.647461,351.907532 1461.292236,346.062836 
	C1472.012451,338.814819 1485.570068,339.617523 1496.309082,347.863525 
	C1511.341431,359.406067 1526.259521,371.097321 1541.530151,382.862030 
	C1544.882935,385.818604 1547.856934,388.726288 1551.011597,391.422394 
	C1552.730225,392.891113 1554.788208,393.955261 1556.635986,395.281616 
	C1561.252197,398.595306 1563.189087,403.403656 1561.900513,408.188873 
	C1560.822388,412.191772 1555.725952,415.696259 1550.385132,415.977051 
	C1547.898560,416.107788 1545.400513,416.018311 1542.453613,416.097168 
	C1509.942139,416.110443 1477.884399,416.048950 1445.826782,416.003693 
	C1435.527466,415.989136 1425.228027,416.017456 1414.464478,416.095886 
z"/>
<path fill="#EE7B20" opacity="1.000000" stroke="none" 
	d="
M1489.016357,960.000000 
	C1485.023560,959.998108 1481.512207,960.199341 1478.034302,959.945007 
	C1473.221436,959.593079 1470.630127,954.544922 1474.093262,951.686401 
	C1484.034302,943.480957 1494.212158,935.482605 1504.891357,928.284546 
	C1510.415039,924.561401 1515.827881,928.518066 1520.436035,932.005493 
	C1527.994751,937.725952 1535.398926,943.650330 1542.904419,949.441589 
	C1545.342896,951.323059 1547.242676,953.950439 1545.733398,956.601318 
	C1544.734619,958.355652 1541.640747,959.820251 1539.459961,959.854919 
	C1522.814453,960.119324 1506.162598,959.999939 1489.016357,960.000000 
z"/>
<path fill="#EE7B20" opacity="1.000000" stroke="none" 
	d="
M970.956909,956.723206 
	C968.798035,958.093018 966.679260,959.851929 964.542053,959.874451 
	C944.546265,960.085938 924.546448,960.083984 904.550537,959.877930 
	C902.395142,959.855774 898.626770,958.376038 898.459106,957.174377 
	C898.135986,954.858398 899.114197,951.373474 900.848694,949.924683 
	C909.379639,942.799133 918.161743,935.939514 927.198914,929.465942 
	C934.018433,924.580994 940.122620,927.866394 945.834351,932.371216 
	C953.285767,938.248047 960.952393,943.861816 968.221252,949.952881 
	C969.805725,951.280701 970.099976,954.148315 970.956909,956.723206 
z"/>
<path fill="#FFFFFF" opacity="1.000000" stroke="none" 
	d="
M964.957275,569.014893 
	C963.278809,559.163147 960.275818,549.733887 960.210388,540.284180 
	C959.534607,442.707764 959.044495,345.127502 959.226318,247.549698 
	C959.266052,226.222595 962.458069,204.982330 972.783203,185.580551 
	C981.869751,168.506287 995.971130,158.708084 1015.051147,156.000580 
	C1029.022583,154.018005 1042.753052,154.041565 1056.059448,159.900803 
	C1066.114014,164.328140 1073.815918,171.150101 1079.829712,180.258591 
	C1088.524414,193.427780 1092.731567,208.046890 1095.051880,223.468292 
	C1098.966919,249.487457 1097.936401,275.666290 1097.968628,301.806122 
	C1098.058838,374.960663 1098.227905,448.116547 1097.840454,521.269104 
	C1097.742920,539.689636 1096.025146,558.162537 1088.985718,575.596924 
	C1080.483398,596.653870 1066.505859,612.019165 1043.494873,616.634277 
	C1024.401245,620.463684 1005.937805,617.738708 989.514282,606.710205 
	C977.528931,598.662048 971.185669,586.233643 966.067688,573.164551 
	C965.597290,571.963379 965.348206,570.675476 964.957275,569.014893 
z"/>
</svg>